<?xml version="1.0" encoding="UTF-8" standalone="no"?>
<!-- Created with Inkscape (http://www.inkscape.org/) -->

<svg
   width="64"
   height="64"
   viewBox="0 0 16.933334 16.933333"
   version="1.1"
   id="svg5"
   inkscape:version="1.1.2 (0a00cf5339, 2022-02-04)"
   sodipodi:docname="fusion360-uninstall (copy).svg"
   xmlns:inkscape="http://www.inkscape.org/namespaces/inkscape"
   xmlns:sodipodi="http://sodipodi.sourceforge.net/DTD/sodipodi-0.dtd"
   xmlns="http://www.w3.org/2000/svg"
   xmlns:svg="http://www.w3.org/2000/svg">
  <sodipodi:namedview
     id="namedview7"
     pagecolor="#ffffff"
     bordercolor="#666666"
     borderopacity="1.0"
     inkscape:pageshadow="2"
     inkscape:pageopacity="0.0"
     inkscape:pagecheckerboard="0"
     inkscape:document-units="mm"
     showgrid="false"
     inkscape:zoom="10.24"
     inkscape:cx="29.248047"
     inkscape:cy="30.712891"
     inkscape:window-width="1846"
     inkscape:window-height="1016"
     inkscape:window-x="74"
     inkscape:window-y="27"
     inkscape:window-maximized="1"
     inkscape:current-layer="layer1"
     units="px" />
  <defs
     id="defs2" />
  <g
     inkscape:label="Layer 1"
     inkscape:groupmode="layer"
     id="layer1"
     transform="translate(-82.182225,-57.000756)">
    <g
       id="g837"
       transform="matrix(0.00846667,0,0,0.00846667,82.015582,56.518149)">
      <path
         id="rect16055"
         style="font-variation-settings:normal;vector-effect:none;fill:#933c00;fill-opacity:1;stroke:none;stroke-width:27.5715;stroke-linecap:round;stroke-linejoin:round;stroke-miterlimit:0;stroke-dasharray:none;stroke-dashoffset:0;stroke-opacity:1;-inkscape-stroke:none;stop-color:#000000"
         d="M 263.76827,367.59381 V 930.72946 1948.1315 c 0,60.3135 48.55523,108.8693 108.86866,108.8693 H 1390.039 1844.3055 1953.1746 V 1948.1315 476.46296 367.59381 H 1844.3055 1390.039 Z" />
      <path
         id="path39586"
         style="vector-effect:none;fill:#ffffff;fill-opacity:1;stroke:none;stroke-width:28.5604;stroke-linecap:round;stroke-linejoin:round;stroke-miterlimit:0;stroke-dasharray:none;stroke-dashoffset:0;stroke-opacity:1;-inkscape-stroke:none;stop-color:#000000"
         d="m 838.90795,1583.0705 c -29.37268,0 -57.54237,8.8569 -78.31203,24.6222 -20.76963,15.7654 -32.43793,37.1477 -32.43798,59.4433 0.0134,0.9769 0.0494,1.9535 0.10768,2.9295 h 74.12175 v 0.7736 c 3.68962,-16.5597 18.41058,-28.867 36.11367,-28.867 h 0.81337 c 20.50156,0 29.39485,13.9765 29.39485,34.4781 -0.0466,26.797 -35.10772,31.5172 -71.31851,31.5172 v 55.5666 c 53.11018,1.7588 78.31305,-9.0548 78.93022,37.1215 0,20.5016 -16.505,37.0066 -37.00656,37.0066 h -0.81337 c -19.47274,0 -35.33792,-14.8906 -36.88145,-33.9524 h -77.98928 c -0.006,0.1595 -0.0114,0.3191 -0.0164,0.4787 5e-5,24.4995 12.14712,47.9955 33.76897,65.3193 21.62184,17.3236 50.94732,27.056 81.52515,27.0559 30.57776,0 59.90311,-9.7324 81.52486,-27.0561 21.62174,-17.3238 33.76874,-40.8197 33.76879,-65.3191 0,-28.3726 -16.27551,-55.1709 -44.13871,-72.6813 25.08101,-15.9618 39.5762,-39.5272 39.59509,-64.3711 -5e-5,-22.2956 -11.66835,-43.6779 -32.43801,-59.4433 -20.76966,-15.7653 -48.93931,-24.6222 -78.31202,-24.6222 z"
         sodipodi:nodetypes="ssccccssccccsscccssscccss" />
      <path
         id="rect14901-4-4-4"
         style="font-variation-settings:normal;vector-effect:none;fill:#ff6b00;fill-opacity:1;stroke:none;stroke-width:27.6691;stroke-linecap:round;stroke-linejoin:round;stroke-miterlimit:0;stroke-dasharray:none;stroke-dashoffset:0;stroke-opacity:1;-inkscape-stroke:none;stop-color:#000000"
         d="M 391.90666,57.000909 V 166.09897 1355.7413 1464.8398 h 109.0986 594.82114 703.9191 V 760.92009 166.09897 c 0,-60.44042 -48.6576,-109.098061 -109.098,-109.098061 H 1095.8264 501.00526 Z" />
      <rect
         style="font-variation-settings:normal;vector-effect:none;fill:#ff8e43;fill-opacity:1;stroke:none;stroke-width:2.79811px;stroke-linecap:butt;stroke-linejoin:miter;stroke-miterlimit:4;stroke-dasharray:none;stroke-dashoffset:0;stroke-opacity:1;-inkscape-stroke:none;stop-color:#000000"
         id="rect15257"
         width="357.63913"
         height="1407.839"
         x="94.895859"
         y="283.26825"
         ry="0"
         transform="matrix(0.8660254,-0.5,0,1,0,0)" />
      <path
         id="rect39502"
         style="fill:#ffffff;fill-opacity:1;stroke:none;stroke-width:0.984164;stroke-linecap:round;stroke-linejoin:round;stroke-miterlimit:0;stop-color:#000000"
         d="M 895.09026,359.03114 V 506.50452 1144.0063 H 1099.3162 V 837.64197 H 1354.614 V 690.17364 H 1099.3162 V 506.50452 h 295.969 V 359.03114 h -295.969 z" />
      <path
         id="rect37503"
         style="vector-effect:none;fill:#ffffff;fill-opacity:1;stroke:none;stroke-width:27.6691;stroke-linecap:round;stroke-linejoin:round;stroke-miterlimit:0;stroke-dasharray:none;stroke-dashoffset:0;stroke-opacity:1;-inkscape-stroke:none;stop-color:#000000"
         d="m 1350.2101,1587.2639 c -55.7867,0 -100.6981,44.9115 -100.6981,100.6982 v 103.7105 c 0,55.7866 44.9114,100.6976 100.6981,100.6976 h 29.1745 c 55.7867,0 100.6976,-44.911 100.6976,-100.6976 v -103.7105 c 0,-55.7867 -44.9109,-100.6982 -100.6976,-100.6982 z m 14.1803,54.7082 h 0.8134 c 20.5016,0 37.0065,16.5049 37.0065,37.0065 v 121.6774 c 0,20.5016 -16.5049,37.0065 -37.0065,37.0065 h -0.8134 c -20.5016,0 -37.0065,-16.5049 -37.0065,-37.0065 v -121.6774 c 0,-20.5016 16.5049,-37.0065 37.0065,-37.0065 z" />
      <path
         id="rect37503-9"
         style="vector-effect:none;fill:#ffffff;fill-opacity:1;stroke:none;stroke-width:27.6691;stroke-linecap:round;stroke-linejoin:round;stroke-miterlimit:0;stroke-dasharray:none;stroke-dashoffset:0;stroke-opacity:1;-inkscape-stroke:none;stop-color:#000000"
         d="m 1084.5171,1587.2639 c -55.7867,0 -100.69765,44.911 -100.69765,100.6977 v 103.7105 c 0,55.7867 44.91095,100.6981 100.69765,100.6981 h 29.1745 c 55.7867,0 100.6982,-44.9114 100.6982,-100.6981 v -103.7105 c 0,-1.1027 -0.024,-2.1994 -0.058,-3.2933 l -0.3052,70.8373 c -6.8309,-53.7429 -99.9166,-77.3853 -151.678,-41.7865 l -5.1007,44.4913 c 95.9002,-47.6812 101.6835,79.4517 42.2635,79.4517 h -0.8128 c -20.5015,0 -37.0065,-16.505 -37.0065,-37.0066 v -121.6774 c 0,-20.5015 16.505,-37.0066 37.0065,-37.0066 h 0.8128 c 17.9963,0 32.9094,12.7192 36.2864,29.6941 h 77.2846 c -7.746,-47.9821 -49.1552,-84.4017 -99.3901,-84.4017 z"
         sodipodi:nodetypes="sssssssccccssssssccss" />
      <path
         id="rect848"
         style="fill:#ff0000;stroke:#ffffff;stroke-width:22.1909;stroke-linecap:round;stroke-linejoin:round;stroke-miterlimit:0;stroke-dasharray:none;stroke-opacity:1;stop-color:#000000"
         d="m 1889.5823,1672.9416 c -22.3704,-22.3703 -58.3889,-22.3703 -80.7594,0 l -83.7803,83.7804 -83.7803,-83.7804 c -22.3704,-22.3703 -58.3892,-22.3706 -80.7596,-2e-4 -22.3703,22.3703 -22.37,58.3891 3e-4,80.7595 l 83.7804,83.7803 -83.7807,83.7806 c -22.3703,22.3704 -22.3703,58.389 0,80.7593 22.3704,22.3704 58.3892,22.3707 80.7596,3e-4 l 83.7806,-83.7806 83.78,83.78 c 22.3705,22.3704 58.3893,22.3707 80.7596,3e-4 22.3704,-22.3703 22.3701,-58.3892 -2e-4,-80.7595 l -83.7801,-83.7801 83.7803,-83.7803 c 22.3704,-22.3704 22.3701,-58.3892 -2e-4,-80.7596 z" />
    </g>
  </g>
</svg>
