<?xml version="1.0" encoding="UTF-8" standalone="no"?>
<!-- Created with Inkscape (http://www.inkscape.org/) -->

<svg
   width="64"
   height="64"
   viewBox="0 0 16.933334 16.933332"
   version="1.1"
   id="svg5"
   inkscape:version="1.1.2 (0a00cf5339, 2022-02-04)"
   sodipodi:docname="fusion360 (copy).svg"
   xmlns:inkscape="http://www.inkscape.org/namespaces/inkscape"
   xmlns:sodipodi="http://sodipodi.sourceforge.net/DTD/sodipodi-0.dtd"
   xmlns="http://www.w3.org/2000/svg"
   xmlns:svg="http://www.w3.org/2000/svg">
  <sodipodi:namedview
     id="namedview7"
     pagecolor="#ffffff"
     bordercolor="#666666"
     borderopacity="1.0"
     inkscape:pageshadow="2"
     inkscape:pageopacity="0.0"
     inkscape:pagecheckerboard="0"
     inkscape:document-units="mm"
     showgrid="false"
     inkscape:zoom="7.2407733"
     inkscape:cx="26.861772"
     inkscape:cy="40.672451"
     inkscape:window-width="1846"
     inkscape:window-height="1016"
     inkscape:window-x="74"
     inkscape:window-y="27"
     inkscape:window-maximized="1"
     inkscape:current-layer="layer1"
     units="px" />
  <defs
     id="defs2" />
  <g
     inkscape:label="Layer 1"
     inkscape:groupmode="layer"
     id="layer1"
     transform="translate(-82.182223,-57.000764)">
    <g
       id="g41108"
       transform="matrix(0.00794647,0,0,0.00794647,82.430676,56.910632)">
      <path
         id="rect16055"
         style="font-variation-settings:normal;opacity:1;vector-effect:none;fill:#933c00;fill-opacity:1;stroke:none;stroke-width:29.3764;stroke-linecap:round;stroke-linejoin:round;stroke-miterlimit:0;stroke-dasharray:none;stroke-dashoffset:0;stroke-opacity:1;-inkscape-stroke:none;stop-color:#000000;stop-opacity:1"
         d="M 225.12839,346.56938 V 946.56945 2030.5735 c 0,64.2618 51.73379,115.9961 115.9955,115.9961 H 1425.1279 1909.132 2025.128 V 2030.5735 462.56541 346.56938 h -115.996 -484.0041 z" />
      <path
         id="path39586"
         style="opacity:1;vector-effect:none;fill:#ffffff;fill-opacity:1;stroke:none;stroke-width:30.43;stroke-linecap:round;stroke-linejoin:round;stroke-miterlimit:0;stroke-dasharray:none;stroke-dashoffset:0;stroke-opacity:1;-inkscape-stroke:none;stop-color:#000000;stop-opacity:1"
         d="m 837.91831,1641.6145 c -31.2955,0 -61.30925,9.4367 -83.43855,26.2341 -22.12927,16.7974 -34.56141,39.5795 -34.56146,63.3346 0.0143,1.0409 0.0526,2.0814 0.11472,3.1213 h 78.97397 v 0.8242 c 3.93115,-17.6437 19.61579,-30.7567 38.47777,-30.7567 h 0.86662 c 21.84365,0 31.31912,14.8915 31.31912,36.7351 -0.0497,28.5512 -37.40597,33.5804 -75.98722,33.5804 v 59.2042 c 56.58692,1.8739 83.43964,-9.6476 84.09721,39.5516 0,21.8437 -17.58546,39.4291 -39.42911,39.4291 h -0.86662 c -20.74748,0 -37.65124,-15.8654 -39.29581,-36.175 h -83.09467 c -0.006,0.17 -0.0122,0.34 -0.0175,0.51 5e-5,26.1033 12.9423,51.1375 35.97958,69.5953 23.03727,18.4577 54.28247,28.8272 86.86201,28.8271 32.57947,0 63.82454,-10.3695 86.86171,-28.8273 23.03716,-18.4578 35.97933,-43.4919 35.97939,-69.5951 0,-30.2299 -17.34095,-58.7825 -47.02816,-77.4392 26.72289,-17.0067 42.16697,-42.1147 42.1871,-68.585 -5e-5,-23.7551 -12.43219,-46.5372 -34.56149,-63.3346 -22.1293,-16.7974 -52.14302,-26.2341 -83.43855,-26.2341 z"
         sodipodi:nodetypes="ssccccssccccsscccssscccss" />
      <path
         id="rect14901-4-4-4"
         style="font-variation-settings:normal;opacity:1;vector-effect:none;fill:#ff6b00;fill-opacity:1;stroke:none;stroke-width:29.4804;stroke-linecap:round;stroke-linejoin:round;stroke-miterlimit:0;stroke-dasharray:none;stroke-dashoffset:0;stroke-opacity:1;-inkscape-stroke:none;stop-color:#000000;stop-opacity:1"
         d="M 361.65507,15.644205 V 131.88413 1399.4037 1515.6441 h 116.2405 633.75983 749.9996 V 765.64389 131.88413 c 0,-64.397015 -51.8429,-116.239925 -116.2399,-116.239925 H 1111.6554 477.89557 Z" />
      <rect
         style="font-variation-settings:normal;opacity:1;vector-effect:none;fill:#ff8e43;fill-opacity:1;stroke:none;stroke-width:2.98128px;stroke-linecap:butt;stroke-linejoin:miter;stroke-miterlimit:4;stroke-dasharray:none;stroke-dashoffset:0;stroke-opacity:1;-inkscape-stroke:none;stop-color:#000000;stop-opacity:1"
         id="rect15257"
         width="381.05118"
         height="1500"
         x="36.552292"
         y="224.44579"
         ry="0"
         transform="matrix(0.8660254,-0.5,0,1,0,0)" />
      <path
         id="rect39502"
         style="fill:#ffffff;fill-opacity:1;stroke:none;stroke-width:1.04859;stroke-linecap:round;stroke-linejoin:round;stroke-miterlimit:0;stop-color:#000000"
         d="M 897.77847,337.44617 V 494.57357 1173.808 H 1115.3736 V 847.3882 h 272.0103 V 690.26618 H 1115.3736 V 494.57357 h 315.344 v -157.1274 h -315.344 z" />
      <path
         id="rect37503"
         style="opacity:1;vector-effect:none;fill:#ffffff;fill-opacity:1;stroke:none;stroke-width:29.4804;stroke-linecap:round;stroke-linejoin:round;stroke-miterlimit:0;stroke-dasharray:none;stroke-dashoffset:0;stroke-opacity:1;-inkscape-stroke:none;stop-color:#000000;stop-opacity:1"
         d="m 1382.6917,1646.0825 c -59.4386,0 -107.2901,47.8515 -107.2901,107.2901 v 110.4997 c 0,59.4386 47.8515,107.2896 107.2901,107.2896 h 31.0844 c 59.4386,0 107.2895,-47.851 107.2895,-107.2896 v -110.4997 c 0,-59.4386 -47.8509,-107.2901 -107.2895,-107.2901 z m 15.1086,58.2895 h 0.8666 c 21.8437,0 39.4291,17.5854 39.4291,39.4291 v 129.6427 c 0,21.8437 -17.5854,39.4291 -39.4291,39.4291 h -0.8666 c -21.8437,0 -39.4291,-17.5854 -39.4291,-39.4291 v -129.6427 c 0,-21.8437 17.5854,-39.4291 39.4291,-39.4291 z" />
      <path
         id="rect37503-9"
         style="vector-effect:none;fill:#ffffff;fill-opacity:1;stroke:none;stroke-width:29.4804;stroke-linecap:round;stroke-linejoin:round;stroke-miterlimit:0;stroke-dasharray:none;stroke-dashoffset:0;stroke-opacity:1;-inkscape-stroke:none;stop-color:#000000"
         d="m 1099.6057,1646.0825 c -59.4386,0 -107.28958,47.851 -107.28958,107.2896 v 110.4997 c 0,59.4386 47.85098,107.2901 107.28958,107.2901 h 31.0844 c 59.4386,0 107.2901,-47.8515 107.2901,-107.2901 v -110.4997 c 0,-1.1749 -0.025,-2.3434 -0.062,-3.5089 l -0.3251,75.4745 c -7.2781,-57.261 -106.4575,-82.4511 -161.6073,-44.5219 l -5.4346,47.4038 c 102.1781,-50.8025 108.34,84.6528 45.0302,84.6528 h -0.866 c -21.8436,0 -39.4291,-17.5854 -39.4291,-39.4291 v -129.6428 c 0,-21.8436 17.5855,-39.4291 39.4291,-39.4291 h 0.866 c 19.1744,0 35.0637,13.5518 38.6618,31.6379 h 82.3438 c -8.253,-51.1231 -52.373,-89.9268 -105.8964,-89.9268 z"
         sodipodi:nodetypes="sssssssccccssssssccss" />
    </g>
  </g>
</svg>
